<?xml version="1.0" encoding="UTF-8"?>
<svg xmlns="http://www.w3.org/2000/svg" viewBox="0 0 1200 700">
  <defs>
    <linearGradient id="g" x1="0%" y1="0%" x2="100%" y2="0%">
      <stop offset="0%" stop-color="#001a66"/>
      <stop offset="100%" stop-color="#1565ff"/>
    </linearGradient>
  </defs>

  <rect width="100%" height="100%" fill="white"/>

  <!-- F -->
  <path d="M140 180
           Q140 120 200 120
           L470 120
           L430 160
           L220 160
           Q180 160 180 200
           L180 420
           L140 420
           Z"
        fill="url(#g)"/>
  <rect x="180" y="235" width="190" height="40" fill="url(#g)"/>

  <!-- R -->
  <path d="M470 120
           L690 120
           Q760 120 760 190
           Q760 255 695 255
           L760 420
           L690 420
           L630 275
           L520 275
           L520 420
           L470 420
           Z
           M520 160
           L520 235
           L675 235
           Q710 235 710 198
           Q710 160 675 160
           Z"
        fill="url(#g)"/>

  <!-- T -->
  <rect x="820" y="120" width="250" height="40" fill="#001a66"/>
  <rect x="920" y="120" width="50" height="300" fill="#001a66"/>

  <!-- FINDOPS -->
  <text x="150" y="560"
        font-family="Arial, Helvetica, sans-serif"
        font-size="110"
        letter-spacing="18"
        fill="#003399">FINDOPS</text>
</svg>
